<svg width="24" height="25" viewBox="0 0 24 25" fill="none" xmlns="http://www.w3.org/2000/svg">
<path fill-rule="evenodd" clip-rule="evenodd" d="M12 1.5C5.77123 1.5 0.720947 6.55028 0.720947 12.7791C0.720947 17.7621 3.95208 21.9906 8.43458 23.4811C8.99863 23.5857 9.20595 23.2364 9.20595 22.9376C9.20595 22.6686 9.19474 21.7796 9.19101 20.8383C6.05139 21.52 5.39022 19.5084 5.39022 19.5084C4.8766 18.2048 4.13885 17.8574 4.13885 17.8574C3.11535 17.157 4.21543 17.1719 4.21543 17.1719C5.34726 17.2523 5.94493 18.3337 5.94493 18.3337C6.95162 20.0576 8.584 19.5589 9.22649 19.2712C9.32735 18.5428 9.62058 18.0442 9.94182 17.7621C7.43723 17.4764 4.80376 16.5089 4.80376 12.1889C4.80376 10.9581 5.24454 9.95138 5.96547 9.16134C5.84781 8.87745 5.46306 7.73068 6.0738 6.17674C6.0738 6.17674 7.02073 5.87417 9.17606 7.33285C10.0763 7.08258 11.04 6.95745 12 6.95371C12.9582 6.95745 13.9238 7.08258 14.8259 7.33285C16.9794 5.87417 17.9244 6.17674 17.9244 6.17674C18.5389 7.73068 18.1523 8.87745 18.0346 9.16134C18.7574 9.95138 19.1945 10.9581 19.1945 12.1889C19.1945 16.5201 16.5554 17.4745 14.0452 17.7547C14.4505 18.1039 14.8109 18.7912 14.8109 19.8428C14.8109 21.3519 14.7979 22.5659 14.7979 22.9376C14.7979 23.2383 15.0014 23.5894 15.573 23.4792C20.0517 21.9869 23.2791 17.7603 23.2791 12.7791C23.2791 6.55028 18.2288 1.5 12 1.5Z" fill="white"/>
<path d="M4.99249 17.693C4.96821 17.7491 4.87856 17.7659 4.79825 17.7267C4.71607 17.6893 4.67124 17.6127 4.69739 17.5567C4.72167 17.4988 4.80945 17.4839 4.89163 17.5212C4.97381 17.5604 5.02051 17.637 4.99249 17.693Z" fill="white"/>
<path d="M5.45001 18.2029C5.39585 18.2533 5.29126 18.2291 5.22028 18.1506C5.14557 18.0722 5.1325 17.9676 5.18666 17.9172C5.2427 17.8667 5.34355 17.891 5.41826 17.9695C5.4911 18.0479 5.50604 18.1525 5.45001 18.2029Z" fill="white"/>
<path d="M5.89456 18.8529C5.82545 18.9014 5.71152 18.8566 5.64242 18.7558C5.57331 18.6549 5.57331 18.5354 5.64429 18.4868C5.71339 18.4383 5.82545 18.4812 5.89643 18.5821C5.96553 18.6829 5.96553 18.8043 5.89456 18.8529Z" fill="white"/>
<path d="M6.50332 19.4804C6.44168 19.5495 6.30908 19.5309 6.21382 19.4375C6.11483 19.346 6.08869 19.2171 6.15032 19.1498C6.21382 19.0807 6.34456 19.1013 6.44168 19.1928C6.5388 19.2825 6.56869 19.4132 6.50332 19.4804Z" fill="white"/>
<path d="M7.34377 19.8446C7.31575 19.9324 7.18875 19.9735 7.06175 19.9362C6.93474 19.8969 6.85069 19.7942 6.87684 19.7046C6.90299 19.6149 7.03 19.5738 7.15887 19.613C7.28774 19.6523 7.36992 19.755 7.34377 19.8446Z" fill="white"/>
<path d="M8.26645 19.9119C8.27019 20.0053 8.16186 20.0818 8.02738 20.0837C7.89291 20.0874 7.78271 20.0109 7.78271 19.9193C7.78271 19.826 7.88917 19.7494 8.02365 19.7475C8.15626 19.7456 8.26645 19.8204 8.26645 19.9119Z" fill="white"/>
<path d="M9.12572 19.7662C9.14253 19.8577 9.04915 19.9492 8.91467 19.9754C8.78393 19.9997 8.66253 19.9436 8.64572 19.854C8.62891 19.7606 8.72417 19.6672 8.85491 19.6429C8.98938 19.6186 9.10892 19.6747 9.12572 19.7662Z" fill="white"/>
</svg>
