<svg width="64" height="65" viewBox="0 0 64 65" fill="none" xmlns="http://www.w3.org/2000/svg">
<rect y="0.5" width="64" height="64" rx="12" fill="#660600"/>
<path d="M55.4317 19.4388C55.4491 19.5024 55.458 19.568 55.4582 19.6339V29.8743C55.4582 30.0057 55.423 30.1348 55.3564 30.2485C55.2897 30.3623 55.1938 30.4566 55.0783 30.522L46.377 35.4704V45.2787C46.377 45.5456 46.2334 45.792 45.9991 45.9264L27.8359 56.2545C27.7944 56.2779 27.749 56.2928 27.7036 56.3087C27.6866 56.3143 27.6706 56.3245 27.6526 56.3292C27.5257 56.3622 27.3922 56.3622 27.2652 56.3292C27.2444 56.3236 27.2255 56.3124 27.2057 56.3049C27.1641 56.29 27.1207 56.2769 27.081 56.2545L8.92158 45.9264C8.80622 45.861 8.71037 45.7666 8.64368 45.6529C8.577 45.5392 8.54184 45.4101 8.54175 45.2787V14.5576C8.54175 14.4904 8.5512 14.425 8.5682 14.3616C8.57387 14.3401 8.5871 14.3205 8.59466 14.299C8.60883 14.2598 8.62206 14.2197 8.64285 14.1833C8.65702 14.159 8.67781 14.1394 8.69482 14.117C8.71655 14.0872 8.73639 14.0564 8.7619 14.0302C8.78363 14.0088 8.81198 13.9929 8.83655 13.9742C8.86395 13.9518 8.88851 13.9276 8.91969 13.9098H8.92064L18.0008 8.74577C18.1158 8.68042 18.2461 8.64603 18.3788 8.64603C18.5114 8.64603 18.6417 8.68042 18.7567 8.74577L27.8369 13.9098H27.8388C27.869 13.9285 27.8945 13.9518 27.9219 13.9733C27.9465 13.992 27.9739 14.0088 27.9956 14.0293C28.0221 14.0564 28.041 14.0872 28.0636 14.117C28.0797 14.1394 28.1014 14.159 28.1147 14.1833C28.1364 14.2206 28.1487 14.2598 28.1638 14.299C28.1714 14.3205 28.1846 14.3401 28.1903 14.3625C28.2077 14.4261 28.2165 14.4917 28.2167 14.5576V33.7457L35.7832 29.4421V19.6329C35.7832 19.5676 35.7927 19.5013 35.8097 19.4388C35.8163 19.4164 35.8286 19.3968 35.8361 19.3753C35.8512 19.3361 35.8645 19.296 35.8852 19.2596C35.8994 19.2353 35.9202 19.2157 35.9363 19.1933C35.9589 19.1635 35.9778 19.1327 36.0043 19.1066C36.026 19.0851 36.0534 19.0692 36.078 19.0506C36.1063 19.0282 36.1309 19.0039 36.1612 18.9862H36.1621L45.2432 13.8221C45.3582 13.7567 45.4885 13.7222 45.6212 13.7222C45.7538 13.7222 45.8842 13.7567 45.9991 13.8221L55.0793 18.9862C55.1114 19.0048 55.136 19.0282 55.1643 19.0496C55.1879 19.0683 55.2153 19.0851 55.2371 19.1056C55.2635 19.1327 55.2824 19.1635 55.3051 19.1933C55.3221 19.2157 55.3429 19.2353 55.3561 19.2596C55.3779 19.296 55.3901 19.3361 55.4053 19.3753C55.4138 19.3968 55.426 19.4164 55.4317 19.4388ZM53.9445 29.4421V20.9265L50.7669 22.7334L46.377 25.2301V33.7457L53.9454 29.4421H53.9445ZM44.8643 44.8466V36.3254L40.5463 38.7613L28.2158 45.7127V54.3142L44.8643 44.8466ZM10.0554 15.8502V44.8466L26.7021 54.3132V45.7136L18.0055 40.852L18.0027 40.8501L17.9989 40.8482C17.9696 40.8314 17.9451 40.8072 17.9177 40.7866C17.894 40.768 17.8666 40.753 17.8459 40.7325L17.844 40.7297C17.8194 40.7064 17.8024 40.6774 17.7816 40.6513C17.7627 40.6261 17.74 40.6046 17.7249 40.5785L17.724 40.5757C17.707 40.5477 17.6966 40.5141 17.6843 40.4824C17.672 40.4544 17.6559 40.4282 17.6484 40.3984V40.3974C17.6389 40.362 17.637 40.3246 17.6333 40.2882C17.6295 40.2602 17.6219 40.2322 17.6219 40.2042V20.1537L13.233 17.6562L10.0554 15.8511V15.8502ZM18.3797 10.2559L10.8142 14.5576L18.3778 18.8592L25.9424 14.5566L18.3778 10.2559H18.3797ZM22.3141 37.1019L26.703 34.6062V15.8502L23.5254 17.6571L19.1356 20.1537V38.9097L22.3141 37.1019ZM45.6212 15.3322L38.0566 19.6339L45.6212 23.9355L53.1848 19.6329L45.6212 15.3322ZM44.8643 25.2301L40.4745 22.7334L37.2969 20.9265V29.4421L41.6858 31.9378L44.8643 33.7457V25.2301ZM27.458 44.42L38.5536 38.1631L44.0999 35.0364L36.541 30.7376L27.8378 35.687L19.9057 40.1977L27.458 44.42Z" fill="#FF2D20"/>
</svg>
