<svg width="24" height="25" viewBox="0 0 24 25" fill="none" xmlns="http://www.w3.org/2000/svg">
<path d="M0 2.26031C0 1.31517 0.794437 0.548004 1.77375 0.548004H22.2263C23.2059 0.548004 24 1.31517 24 2.26031V22.74C24 23.6854 23.2059 24.452 22.2263 24.452H1.77375C0.794531 24.452 0 23.6855 0 22.7403V2.26003V2.26031Z" fill="#006699"/>
<path d="M7.2933 20.5525V9.79082H3.70192V20.5525H7.29367H7.2933ZM5.49836 8.32176C6.75048 8.32176 7.53002 7.49539 7.53002 6.46266C7.50658 5.4064 6.75048 4.6031 5.52217 4.6031C4.29302 4.6031 3.49023 5.4064 3.49023 6.46257C3.49023 7.49529 4.26948 8.32166 5.47483 8.32166H5.49808L5.49836 8.32176ZM9.28117 20.5525H12.8723V14.5433C12.8723 14.2221 12.8957 13.9001 12.9906 13.6706C13.2501 13.0278 13.841 12.3623 14.8333 12.3623C16.1325 12.3623 16.6525 13.3491 16.6525 14.7959V20.5525H20.2435V14.3821C20.2435 11.0767 18.472 9.53852 16.1093 9.53852C14.1721 9.53852 13.3213 10.6169 12.8486 11.3514H12.8725V9.7912H9.28136C9.32823 10.8008 9.28108 20.5529 9.28108 20.5529L9.28117 20.5525Z" fill="white"/>
</svg>
