<svg width="65" height="65" viewBox="0 0 65 65" fill="none" xmlns="http://www.w3.org/2000/svg">
<rect x="0.428467" y="0.5" width="64" height="64" rx="12" fill="#12EB0C"/>
<path d="M32.1883 48.449C32.0169 48.449 31.8466 48.4047 31.6966 48.3186L30.1314 47.4002C29.8977 47.2704 30.0119 47.2246 30.0889 47.1979C30.4007 47.0906 30.4638 47.0658 30.7966 46.8787C30.8312 46.8594 30.8772 46.8667 30.913 46.8876L32.1154 47.5956C32.159 47.6195 32.2205 47.6195 32.2605 47.5956L36.9484 44.9123C36.992 44.8876 37.0199 44.8378 37.0199 44.7865V39.4215C37.0199 39.369 36.9919 39.32 36.9472 39.2934L32.2614 36.6124C32.2182 36.5873 32.1606 36.5873 32.1169 36.6124L27.4322 39.2942C27.3867 39.32 27.3578 39.3706 27.3578 39.4215V44.7865C27.3578 44.8378 27.3866 44.8865 27.4318 44.9108L28.716 45.6466C29.4128 45.9921 29.8393 45.5852 29.8393 45.1763V39.8792C29.8393 39.8043 29.9001 39.7452 29.9755 39.7452H30.57C30.6444 39.7452 30.7059 39.8043 30.7059 39.8792V45.1763C30.7059 46.0986 30.1994 46.6275 29.3178 46.6275C29.0469 46.6275 28.8335 46.6275 28.238 46.3364L27.0088 45.6346C26.7052 45.4605 26.5171 45.135 26.5171 44.7865V39.4215C26.5171 39.0729 26.7051 38.7475 27.0088 38.5742L31.6966 35.8878C31.9932 35.7214 32.3875 35.7214 32.6818 35.8878L37.3693 38.5742C37.6728 38.7483 37.8616 39.0729 37.8616 39.4215V44.7865C37.8616 45.135 37.6728 45.4594 37.3693 45.6346L32.6818 48.3187C32.5319 48.4047 32.3619 48.449 32.1883 48.449Z" fill="#699F63"/>
<path d="M33.6364 44.7529C31.585 44.7529 31.1553 43.8191 31.1553 43.0358C31.1553 42.9613 31.2156 42.9019 31.2908 42.9019H31.8969C31.9646 42.9019 32.021 42.9502 32.0316 43.0158C32.1231 43.6277 32.3959 43.9365 33.6365 43.9365C34.624 43.9365 35.0445 43.715 35.0445 43.1954C35.0445 42.8958 34.9254 42.6734 33.3905 42.5244C32.108 42.3986 31.3146 42.1175 31.3146 41.0999C31.3146 40.1618 32.1118 39.6024 33.4486 39.6024C34.9504 39.6024 35.6935 40.1194 35.7876 41.2284C35.7911 41.2665 35.7775 41.3033 35.7518 41.3318C35.7261 41.3585 35.6903 41.3746 35.6525 41.3746H35.0441C34.9811 41.3746 34.9254 41.3303 34.9126 41.2697C34.7666 40.6258 34.4116 40.4201 33.4486 40.4201C32.3704 40.4201 32.245 40.7926 32.245 41.0716C32.245 41.4098 32.393 41.5082 33.8488 41.6993C35.2894 41.8881 35.9737 42.1556 35.9737 43.1596C35.9735 44.1726 35.1218 44.7529 33.6364 44.7529Z" fill="#699F63"/>
<path d="M40.3959 39.1263C40.3959 39.6192 39.9896 40.0222 39.4925 40.0222C39 40.0222 38.5891 39.624 38.5891 39.1263C38.5891 38.619 39.0099 38.2301 39.4925 38.2301C39.9802 38.2301 40.3959 38.619 40.3959 39.1263ZM38.735 39.1237C38.735 39.541 39.0743 39.8777 39.4901 39.8777C39.9109 39.8777 40.2503 39.5339 40.2503 39.1237C40.2503 38.7066 39.9063 38.3747 39.4901 38.3747C39.079 38.3749 38.735 38.7017 38.735 39.1237ZM39.1531 38.6237H39.5023C39.6217 38.6237 39.8561 38.6237 39.8561 38.8892C39.8561 39.0741 39.7366 39.1119 39.6646 39.1357C39.8035 39.1452 39.8129 39.2353 39.8319 39.3633C39.8416 39.4438 39.8561 39.5814 39.8845 39.6287H39.6696C39.6646 39.5815 39.6311 39.3254 39.6311 39.3113C39.6171 39.2543 39.5977 39.226 39.5261 39.226H39.3494V39.6287H39.1532V38.6237H39.1531ZM39.3446 39.0645H39.5022C39.631 39.0645 39.6552 38.9745 39.6552 38.9224C39.6552 38.7847 39.5594 38.7847 39.5068 38.7847H39.3446V39.0645Z" fill="#699F63"/>
<path d="M17.6718 27.4585C17.6718 27.2443 17.5581 27.0474 17.3716 26.9412L12.4016 24.1047C12.3175 24.0557 12.2233 24.0302 12.1279 24.0263C12.1193 24.0263 12.0836 24.0263 12.0765 24.0263C11.9816 24.0301 11.8874 24.0556 11.8021 24.1047L6.83201 26.9412C6.64672 27.0474 6.53149 27.2443 6.53149 27.4585L6.54241 35.0965C6.54241 35.2026 6.59803 35.3015 6.69225 35.3535C6.78448 35.4083 6.89854 35.4083 6.99042 35.3535L9.94417 33.6762C10.131 33.5662 10.2447 33.372 10.2447 33.1597V29.5912C10.2447 29.3785 10.3583 29.1816 10.5444 29.0759L11.8021 28.3576C11.8958 28.3039 11.9982 28.2776 12.1029 28.2776C12.2052 28.2776 12.3104 28.3039 12.4014 28.3576L13.6588 29.0759C13.8449 29.1817 13.9589 29.3786 13.9589 29.5912V33.1597C13.9589 33.372 14.0742 33.5674 14.2598 33.6762L17.2127 35.3535C17.3053 35.4083 17.421 35.4083 17.5129 35.3535C17.6044 35.3014 17.662 35.2026 17.662 35.0965L17.6718 27.4585Z" fill="#333333"/>
<path d="M41.5859 16.9589C41.4928 16.9075 41.3794 16.9087 41.2875 16.9621C41.1958 17.0157 41.1394 17.1133 41.1394 17.2188V24.7829C41.1394 24.8573 41.0993 24.9262 41.0345 24.9634C40.9695 25.0006 40.8893 25.0006 40.8242 24.9634L39.5794 24.2521C39.3937 24.146 39.1652 24.1462 38.9796 24.2524L34.0076 27.098C33.8217 27.2043 33.7073 27.4009 33.7073 27.6135V33.3059C33.7073 33.5186 33.8217 33.715 34.0074 33.8216L38.9792 36.6693C39.1651 36.7757 39.3939 36.7757 39.5798 36.6693L44.5523 33.8216C44.7381 33.7152 44.8525 33.5186 44.8525 33.3059V19.1161C44.8525 18.9004 44.7348 18.7013 44.5446 18.5961L41.5859 16.9589ZM41.1246 31.4356C41.1246 31.4886 41.096 31.5379 41.0495 31.5643L39.3424 32.5402C39.2961 32.5666 39.2389 32.5666 39.1926 32.5402L37.4855 31.5643C37.439 31.5379 37.4104 31.4886 37.4104 31.4356V29.4807C37.4104 29.4276 37.439 29.3784 37.4854 29.3517L39.1925 28.3739C39.2389 28.3472 39.2962 28.3472 39.3427 28.3739L41.0498 29.3517C41.0961 29.3784 41.1247 29.4276 41.1247 29.4807L41.1246 31.4356Z" fill="#333333"/>
<path d="M58.1418 29.4296C58.3267 29.3231 58.4405 29.1269 58.4405 28.9147V27.5353C58.4405 27.3232 58.3267 27.1268 58.1415 27.0204L53.2015 24.1759C53.0157 24.0687 52.7861 24.0686 52.5999 24.1751L47.6298 27.0207C47.444 27.1271 47.3296 27.3235 47.3296 27.5362V33.2271C47.3296 33.4411 47.4454 33.6386 47.6328 33.7444L52.5721 36.5355C52.7542 36.6386 52.9775 36.6398 53.1608 36.5388L56.1483 34.892C56.2432 34.8397 56.3022 34.7411 56.3027 34.6338C56.3035 34.5265 56.2459 34.4271 56.152 34.3736L51.1503 31.5266C51.0569 31.4735 50.9995 31.3748 50.9995 31.2682V29.4847C50.9995 29.3784 51.0566 29.2799 51.1497 29.2269L52.7063 28.3369C52.7989 28.2838 52.9135 28.2838 53.006 28.3369L54.5635 29.2269C54.6566 29.2799 54.7137 29.3784 54.7137 29.4847V30.8879C54.7137 30.9945 54.7712 31.093 54.8642 31.146C54.9572 31.1993 55.0718 31.1989 55.1647 31.1455L58.1418 29.4296Z" fill="#333333"/>
<path d="M52.8276 29.163C52.8632 29.1425 52.9071 29.1425 52.9428 29.163L53.8968 29.7088C53.9325 29.7292 53.9544 29.7668 53.9544 29.8078V30.9003C53.9544 30.9412 53.9325 30.9788 53.8968 30.9993L52.9428 31.5451C52.9071 31.5656 52.8632 31.5656 52.8276 31.5451L51.8743 30.9993C51.8386 30.9788 51.8167 30.9412 51.8167 30.9003V29.8078C51.8167 29.7668 51.8386 29.7292 51.8743 29.7088L52.8276 29.163Z" fill="#699F63"/>
<path d="M25.9887 24.2048C25.804 24.099 25.5764 24.099 25.3918 24.2048L20.4477 27.0342C20.2627 27.14 20.1489 27.3354 20.1489 27.5472V33.2105C20.1489 33.422 20.2627 33.6174 20.4474 33.7234L25.3916 36.5552C25.5764 36.6609 25.804 36.6609 25.9889 36.5552L30.9319 33.7234C31.1166 33.6175 31.2303 33.422 31.2303 33.2105V27.5469C31.2303 27.3354 31.1165 27.14 30.9317 27.0342L25.9887 24.2048Z" fill="url(#paint0_linear_17_22)"/>
<path d="M30.9413 27.0342L25.9833 24.2048C25.9344 24.1768 25.8821 24.1567 25.8282 24.1436L20.2615 33.5873C20.3095 33.6408 20.3657 33.6875 20.4281 33.7233L25.3944 36.5551C25.5351 36.6356 25.7023 36.6545 25.8557 36.6123L31.0742 27.1356C31.0346 27.0967 30.9901 27.0622 30.9413 27.0342Z" fill="url(#paint1_linear_17_22)"/>
<path d="M25.2268 23.1647L25.1587 23.2032H25.2495L25.2268 23.1647Z" fill="url(#paint2_linear_17_22)"/>
<path d="M30.944 33.7234C31.0881 33.6408 31.1956 33.5033 31.2363 33.3466L25.8014 24.1384C25.6595 24.1104 25.509 24.1317 25.3812 24.2049L20.4565 27.0173L25.7765 36.6288C25.8524 36.6186 25.9268 36.5941 25.9949 36.5553L30.944 33.7234Z" fill="url(#paint3_linear_17_22)"/>
<path d="M31.4051 33.6323L31.3723 33.5768V33.6511L31.4051 33.6323Z" fill="url(#paint4_linear_17_22)"/>
<path d="M30.9441 33.7234L25.995 36.5552C25.9269 36.5941 25.8525 36.6185 25.7766 36.6287L25.8752 36.8068L31.3723 33.6511V33.5768L31.2364 33.3466C31.1957 33.5033 31.0882 33.6407 30.9441 33.7234Z" fill="url(#paint5_linear_17_22)"/>
<path d="M30.9441 33.7234L25.995 36.5552C25.9269 36.5941 25.8525 36.6185 25.7766 36.6287L25.8752 36.8068L31.3723 33.6511V33.5768L31.2364 33.3466C31.1957 33.5033 31.0882 33.6407 30.9441 33.7234Z" fill="url(#paint6_linear_17_22)"/>
<defs>
<linearGradient id="paint0_linear_17_22" x1="27.6998" y1="26.312" x2="23.2928" y2="35.3774" gradientUnits="userSpaceOnUse">
<stop stop-color="#41873F"/>
<stop offset="0.3288" stop-color="#418B3D"/>
<stop offset="0.6352" stop-color="#419637"/>
<stop offset="0.9319" stop-color="#3FA92D"/>
<stop offset="1" stop-color="#3FAE2A"/>
</linearGradient>
<linearGradient id="paint1_linear_17_22" x1="24.9369" y1="31.0411" x2="37.3961" y2="21.7587" gradientUnits="userSpaceOnUse">
<stop offset="0.1376" stop-color="#41873F"/>
<stop offset="0.4032" stop-color="#54A044"/>
<stop offset="0.7136" stop-color="#66B848"/>
<stop offset="0.9081" stop-color="#6CC04A"/>
</linearGradient>
<linearGradient id="paint2_linear_17_22" x1="19.9739" y1="23.1839" x2="31.4051" y2="23.1839" gradientUnits="userSpaceOnUse">
<stop offset="0.0919" stop-color="#6CC04A"/>
<stop offset="0.2864" stop-color="#66B848"/>
<stop offset="0.5968" stop-color="#54A044"/>
<stop offset="0.8624" stop-color="#41873F"/>
</linearGradient>
<linearGradient id="paint3_linear_17_22" x1="19.9738" y1="30.3777" x2="31.405" y2="30.3777" gradientUnits="userSpaceOnUse">
<stop offset="0.0919" stop-color="#6CC04A"/>
<stop offset="0.2864" stop-color="#66B848"/>
<stop offset="0.5968" stop-color="#54A044"/>
<stop offset="0.8624" stop-color="#41873F"/>
</linearGradient>
<linearGradient id="paint4_linear_17_22" x1="19.9736" y1="33.614" x2="31.4051" y2="33.614" gradientUnits="userSpaceOnUse">
<stop offset="0.0919" stop-color="#6CC04A"/>
<stop offset="0.2864" stop-color="#66B848"/>
<stop offset="0.5968" stop-color="#54A044"/>
<stop offset="0.8624" stop-color="#41873F"/>
</linearGradient>
<linearGradient id="paint5_linear_17_22" x1="19.9739" y1="35.0767" x2="31.4051" y2="35.0767" gradientUnits="userSpaceOnUse">
<stop offset="0.0919" stop-color="#6CC04A"/>
<stop offset="0.2864" stop-color="#66B848"/>
<stop offset="0.5968" stop-color="#54A044"/>
<stop offset="0.8624" stop-color="#41873F"/>
</linearGradient>
<linearGradient id="paint6_linear_17_22" x1="33.0705" y1="26.0441" x2="26.1146" y2="40.3527" gradientUnits="userSpaceOnUse">
<stop stop-color="#41873F"/>
<stop offset="0.3288" stop-color="#418B3D"/>
<stop offset="0.6352" stop-color="#419637"/>
<stop offset="0.9319" stop-color="#3FA92D"/>
<stop offset="1" stop-color="#3FAE2A"/>
</linearGradient>
</defs>
</svg>
