<svg width="65" height="65" viewBox="0 0 65 65" fill="none" xmlns="http://www.w3.org/2000/svg">
<rect x="0.428467" y="0.5" width="64" height="64" rx="12" fill="#005666"/>
<path d="M32.3752 37.812C35.3325 37.812 37.7298 35.4146 37.7298 32.4573C37.7298 29.5 35.3325 27.1027 32.3752 27.1027C29.4179 27.1027 27.0205 29.5 27.0205 32.4573C27.0205 35.4146 29.4179 37.812 32.3752 37.812Z" fill="#00D8FF"/>
<path d="M32.3752 44.724C24.8552 44.724 18.2845 43.8387 13.3672 42.1533C10.1779 41.0653 7.46852 39.6147 5.53786 37.9613C3.48986 36.212 2.40186 34.3027 2.40186 32.4573C2.40186 28.916 6.28452 25.4493 12.8019 23.188C18.1352 21.332 25.0899 20.2973 32.3645 20.2973C39.5112 20.2973 46.3699 21.3 51.6712 23.1347C54.7752 24.2013 57.3885 25.588 59.2445 27.124C61.2605 28.8093 62.3272 30.6547 62.3272 32.4573C62.3272 36.1373 57.9859 39.86 50.9885 42.1747C46.0392 43.8173 39.4259 44.724 32.3752 44.724ZM32.3752 22.8573C25.4739 22.8573 18.6472 23.86 13.6552 25.5987C7.66052 27.6893 4.97252 30.548 4.97252 32.4573C4.97252 34.4413 7.86319 37.5667 14.1992 39.732C18.8499 41.3213 25.1432 42.164 32.3752 42.164C39.1592 42.164 45.4845 41.3107 50.1885 39.7427C56.7699 37.556 59.7779 34.4307 59.7779 32.4573C59.7779 31.444 59.0098 30.2493 57.6125 29.0867C56.0019 27.7427 53.6552 26.516 50.8499 25.5453C45.8045 23.8173 39.2445 22.8573 32.3752 22.8573Z" fill="#00D8FF"/>
<path d="M20.2259 59.1453C19.1379 59.1453 18.1779 58.9107 17.3672 58.4413C14.3059 56.6707 13.2392 51.572 14.5299 44.7987C15.5859 39.2413 18.1672 32.7133 21.8045 26.4093C25.3779 20.2227 29.6659 14.7827 33.9005 11.1027C36.3752 8.94799 38.8819 7.36933 41.1432 6.53733C43.6072 5.63066 45.7405 5.63066 47.2979 6.52666C50.4872 8.36133 51.5432 13.9933 50.0499 21.204C48.9939 26.324 46.4765 32.5 42.9565 38.612C39.2019 45.1187 35.1485 50.3667 31.2339 53.7907C28.6952 56.0093 26.0819 57.6307 23.6925 58.4733C22.4445 58.9213 21.2712 59.1453 20.2259 59.1453ZM22.9032 27.0493L24.0125 27.6893C20.5672 33.6627 18.0179 40.0733 17.0365 45.2787C15.8525 51.5187 16.9939 55.2733 18.6365 56.2227C19.0419 56.4573 19.5752 56.5853 20.2259 56.5853C22.3485 56.5853 25.6872 55.2413 29.5485 51.8707C33.2499 48.6387 37.1219 43.604 40.7379 37.3427C44.1299 31.4653 46.5405 25.556 47.5432 20.7027C48.9405 13.908 47.7352 9.74799 46.0179 8.75599C45.1432 8.25466 43.7245 8.31866 42.0179 8.94799C40.0445 9.67333 37.8152 11.092 35.5752 13.044C31.5539 16.5427 27.4472 21.748 24.0125 27.7L22.9032 27.0493Z" fill="#00D8FF"/>
<path d="M44.5244 59.1773C41.6231 59.1773 37.9431 57.428 34.1031 54.1213C29.8151 50.4307 25.4524 44.9373 21.8044 38.6333C18.2204 32.4467 15.6604 26.0147 14.5831 20.5C13.9538 17.2787 13.8364 14.324 14.2418 11.9453C14.6898 9.35334 15.7458 7.50801 17.3138 6.60134C20.4924 4.75601 25.9004 6.65468 31.4044 11.5507C35.3084 15.0173 39.4044 20.2867 42.9351 26.388C46.7004 32.8947 49.2284 39.028 50.2311 44.1267C50.8818 47.4333 50.9884 50.5054 50.5298 53.0014C50.0391 55.6574 48.9298 57.5453 47.3298 58.4734C46.5298 58.9427 45.5804 59.1773 44.5244 59.1773ZM24.0231 37.3533C27.4791 43.3267 31.7671 48.7347 35.7778 52.18C40.5884 56.3187 44.4071 57.2147 46.0604 56.2547C47.7778 55.2627 49.0364 51.1987 47.7351 44.628C46.7751 39.8067 44.3538 33.94 40.7271 27.6787C37.3244 21.8013 33.4098 16.756 29.7084 13.4707C24.5244 8.86268 20.3218 7.82801 18.6044 8.82001C17.7298 9.32134 17.0791 10.5907 16.7698 12.3827C16.4178 14.452 16.5244 17.0973 17.1004 20.0093C18.1244 25.2467 20.5778 31.4013 24.0231 37.3533Z" fill="#00D8FF"/>
</svg>
