<svg width="64" height="65" viewBox="0 0 64 65" fill="none" xmlns="http://www.w3.org/2000/svg">
<rect y="0.5" width="64" height="64" rx="12" fill="#034563"/>
<path fill-rule="evenodd" clip-rule="evenodd" d="M32 16.3C24.8 16.3 20.3 19.9 18.5 27.1C21.2 23.5 24.35 22.15 27.95 23.05C30.004 23.563 31.472 25.054 33.097 26.703C35.744 29.39 38.808 32.5 45.5 32.5C52.7 32.5 57.2 28.9 59 21.7C56.3 25.3 53.15 26.65 49.55 25.75C47.496 25.237 46.028 23.746 44.403 22.097C41.756 19.41 38.692 16.3 32 16.3ZM18.5 32.5C11.3 32.5 6.8 36.1 5 43.3C7.7 39.7 10.85 38.35 14.45 39.25C16.504 39.764 17.972 41.254 19.597 42.903C22.244 45.59 25.308 48.7 32 48.7C39.2 48.7 43.7 45.1 45.5 37.9C42.8 41.5 39.65 42.85 36.05 41.95C33.996 41.437 32.528 39.946 30.903 38.297C28.256 35.61 25.192 32.5 18.5 32.5Z" fill="#38BDF8"/>
</svg>
