<svg width="24" height="25" viewBox="0 0 24 25" fill="none" xmlns="http://www.w3.org/2000/svg">
<mask id="mask0_17_74" style="mask-type:alpha" maskUnits="userSpaceOnUse" x="0" y="0" width="24" height="25">
<rect y="0.5" width="24" height="24" fill="#D9D9D9"/>
</mask>
<g mask="url(#mask0_17_74)">
<path fill-rule="evenodd" clip-rule="evenodd" d="M19.0861 5.40644C17.206 3.5332 14.7056 2.50105 12.0418 2.5C6.55293 2.5 2.08569 6.94554 2.0835 12.4098C2.08277 14.1565 2.54134 15.8615 3.41273 17.3644L2 22.5L7.27902 21.1219C8.73349 21.9114 10.3711 22.3275 12.0378 22.3282H12.0419C17.5301 22.3282 21.9978 17.8821 22 12.4177C22.0011 9.76966 20.9662 7.27968 19.0861 5.40644ZM12.0419 20.6543H12.0385C10.5533 20.6538 9.0966 20.2567 7.82583 19.5062L7.52357 19.3276L4.39097 20.1455L5.22714 17.1058L5.03031 16.7942C4.20179 15.4827 3.76418 13.9668 3.76484 12.4105C3.76665 7.86875 7.47967 4.17381 12.0452 4.17381C14.2559 4.17465 16.334 5.03259 17.8967 6.58955C19.4594 8.14652 20.3195 10.2161 20.3187 12.4171C20.3168 16.9591 16.6038 20.6543 12.0419 20.6543ZM16.5819 14.4851C16.3331 14.3612 15.1097 13.7621 14.8816 13.6795C14.6536 13.5968 14.4877 13.5555 14.3218 13.8034C14.156 14.0513 13.6791 14.6091 13.5339 14.7744C13.3888 14.9396 13.2437 14.9603 12.9948 14.8363C12.746 14.7124 11.9443 14.4509 10.9939 13.6073C10.2542 12.9507 9.75482 12.1397 9.60968 11.8918C9.46454 11.6439 9.59425 11.5099 9.7188 11.3865C9.83072 11.2755 9.96762 11.0972 10.092 10.9526C10.2164 10.808 10.2579 10.7047 10.3408 10.5395C10.4238 10.3742 10.3823 10.2296 10.3201 10.1056C10.2579 9.9817 9.76029 8.76284 9.55292 8.26704C9.35097 7.78417 9.14582 7.8495 8.99309 7.84194C8.84811 7.83476 8.68207 7.83322 8.51621 7.83322C8.35033 7.83322 8.08077 7.89521 7.85268 8.14309C7.62462 8.39101 6.98186 8.9901 6.98186 10.2089C6.98186 11.4278 7.87343 12.6053 7.99785 12.7705C8.12224 12.9358 9.75238 15.4371 12.2484 16.5097C12.8421 16.7648 13.3055 16.9171 13.6669 17.0313C14.263 17.2197 14.8054 17.1932 15.2341 17.1294C15.7122 17.0583 16.7063 16.5303 16.9136 15.9519C17.121 15.3735 17.121 14.8777 17.0588 14.7744C16.9966 14.6711 16.8307 14.6091 16.5819 14.4851Z" fill="#12EB0C"/>
</g>
</svg>
